inDegrees=no
num_controls=7
num_derivatives=13
num_iterations=254
num_multipliers=7
num_parameters=0
num_slacks=7
num_states=26
objective=6.390562
objective_accelerations=0.417080
objective_balance=0.047294
objective_effort=0.435312
objective_height=5.399223
objective_ligament=0.091654
solver_duration=2273.015218
status=Solve_Succeeded
success=true
DataType=double
version=3
OpenSimVersion=4.4-2022-07-23-0e9fedc
endheader
time	/jointset/ground_pelvis/pelvis_tilt/value	/jointset/ground_pelvis/pelvis_tx/value	/jointset/ground_pelvis/pelvis_ty/value	/jointset/hip_r/hip_flexion_r/value	/jointset/hip_r/hip_adduction_r/value	/jointset/hip_r/hip_rotation_r/value	/jointset/back/lumbar_extension/value	/jointset/patellofemoral_r/patellar_flexion_r/value	/jointset/knee_r/knee_flexion_r/value	/jointset/knee_r/knee_adduction_r/value	/jointset/knee_r/knee_rotation_r/value	/jointset/ankle_r/ankle_angle_r/value	/jointset/subtalar_r/subtalar_angle_r/value	/jointset/ground_pelvis/pelvis_tilt/speed	/jointset/ground_pelvis/pelvis_tx/speed	/jointset/ground_pelvis/pelvis_ty/speed	/jointset/hip_r/hip_flexion_r/speed	/jointset/hip_r/hip_adduction_r/speed	/jointset/hip_r/hip_rotation_r/speed	/jointset/back/lumbar_extension/speed	/jointset/patellofemoral_r/patellar_flexion_r/speed	/jointset/knee_r/knee_flexion_r/speed	/jointset/knee_r/knee_adduction_r/speed	/jointset/knee_r/knee_rotation_r/speed	/jointset/ankle_r/ankle_angle_r/speed	/jointset/subtalar_r/subtalar_angle_r/speed	/forceset/tau_hip_flexion_r	/forceset/tau_hip_adduction_r	/forceset/tau_hip_rotation_r	/forceset/tau_knee_flexion_r	/forceset/tau_ankle_angle_r	/forceset/tau_subtalar_angle_r	/forceset/tau_lumbar_extension	lambda_cid13_p0	lambda_cid14_p0	lambda_cid14_p1	lambda_cid14_p2	lambda_cid14_p3	lambda_cid14_p4	lambda_cid14_p5	/jointset/ground_pelvis/pelvis_tilt/accel	/jointset/ground_pelvis/pelvis_tx/accel	/jointset/ground_pelvis/pelvis_ty/accel	/jointset/hip_r/hip_flexion_r/accel	/jointset/hip_r/hip_adduction_r/accel	/jointset/hip_r/hip_rotation_r/accel	/jointset/back/lumbar_extension/accel	/jointset/patellofemoral_r/patellar_flexion_r/accel	/jointset/knee_r/knee_flexion_r/accel	/jointset/knee_r/knee_adduction_r/accel	/jointset/knee_r/knee_rotation_r/accel	/jointset/ankle_r/ankle_angle_r/accel	/jointset/subtalar_r/subtalar_angle_r/accel	gamma_cid13_p0	gamma_cid14_p0	gamma_cid14_p1	gamma_cid14_p2	gamma_cid14_p3	gamma_cid14_p4	gamma_cid14_p5
0	-0.006516717393545657	0.09626122225767644	0.9427240277759552	0.1762555651711513	-0.2321527106348535	-0.261640763403435	-0.0385979564078546	0.07317816487762165	0.07317816487761825	0.1745329251994329	0.1745329173046052	0.0324735960626065	-0.003451807557601851	0	0	0	0	0	0	0	0	0	0	0	0	0	0.2323156587765453	-0.1983528571060332	-0.04827417945121119	-0.4349664908528963	0.4490488887762181	-0.1267873691078738	-0.1238488622135628	-39.07636162929844	95.33991321344065	-28.73818117872519	-5.960720408642431	-50.62915725932907	-680.6166156362367	80.67011803102469	-1.418711004249113	-0.6471675971627361	-0.4922934474243649	7.364200498281459	0.2469015771295971	2.257238271051467	-4.80162337969618	8.553161968131734	8.553161968132283	-2.800696492556942	0.1705265852725745	3.436412247116432	1.037979258042936	9.329128303254366e-08	5.107219646647438e-08	-6.280209506481075e-07	2.185408369863405e-07	3.538621312165374e-08	8.48095863556599e-09	-3.551203365846505e-07
0.01	-0.006582004666846938	0.0962293537084927	0.94270042600575	0.1766112914617378	-0.2321392679239914	-0.2615201333527853	-0.03883978762820383	0.07359380392220827	0.07359380392221095	0.1743930217011824	0.1745302707066249	0.03264162140598682	-0.003399721657243978	-0.0129896364078326	-0.006350315209067798	-0.004711190011015236	0.0708174204252769	0.002626386002926681	0.02400224642963757	-0.04804109701683049	0.08277028479382391	0.08277028479383504	-0.02774528968646272	-0.0005097802563114564	0.03343769080832466	0.01031436100849174	0.2265132554072047	-0.2025131670929235	-0.04672804828045426	-0.4266109216366604	0.4355972530937313	-0.1181078282329722	-0.1192654736441334	-39.09013668820766	91.33017862683214	-25.71045349466067	-6.398052074285228	-48.14843053161036	-680.9501269855434	85.99418572585162	-1.228911484293171	-0.6254472113484579	-0.4591554772481956	6.891342534325863	0.2611276856700209	2.453204219120413	-4.75658080474044	8.085314458061879	8.085314458062816	-2.726137108152793	-0.1587393509829925	3.2723563727837	1.012667986622476	1.272322336485089e-07	6.134864941799047e-08	-8.465728140648641e-07	2.243759964473118e-07	5.940338388053841e-08	-1.189298042102269e-07	-4.218380288894787e-07
0.02	-0.006775152609274513	0.09613468526150425	0.9426299875955731	0.1776653579005137	-0.232101437238341	-0.2611631835598002	-0.03955227540713321	0.0748264163593583	0.07482641635936002	0.1739827245998966	0.1745231245020195	0.03313900543246921	-0.003247591453927129	-0.02557213382538745	-0.0125599795609375	-0.009367327994319193	0.1396680296375517	0.004877594957686776	0.04726394846729504	-0.09413131171621883	0.1633946785098151	0.1633946785098198	-0.05407825543139869	-0.0008999213086182856	0.06587173662037821	0.02000886059179044	0.2207108520378848	-0.2066734770798184	-0.04518191710979665	-0.4182553524203904	0.4221456174112512	-0.1094282873580723	-0.1146820850746922	-39.13092050471454	87.39732286036859	-22.69100309607606	-6.809232851636724	-45.85260519036638	-680.1223138454361	91.08969266121335	-1.337283206193575	-0.6190374257231043	-0.4812830418821104	6.970838255681031	0.1718661674962645	2.109129392655336	-4.411446916207754	8.123983752565199	8.123983752562234	-2.518231704251559	0.1944544260736174	3.235683247862217	0.9140069730043177	1.611731842644741e-07	7.162510236950656e-08	-1.065124677481621e-06	2.30211155908283e-07	8.342055463942309e-08	-2.463405670560198e-07	-4.885557211943068e-07
0.03	-0.007092351847979864	0.09597845991043508	0.9425130601038747	0.1793987911000486	-0.2320429675853758	-0.2605792008774738	-0.04071578377737369	0.07685522109466757	0.07685522109467005	0.1733163202848485	0.1745143986635246	0.03395564375409375	-0.0030015784280974	-0.03779122798100842	-0.0186766148381528	-0.01402247796382098	0.2067017209640929	0.006765904616171457	0.06941583327654959	-0.1382678617048646	0.2420061065256181	0.2420061065256055	-0.07897382485031135	-0.0008604474186963552	0.09727043428714152	0.02910117094566557	0.2139496263977116	-0.1984534507648143	-0.04334520614852638	-0.4089670294877142	0.4090885610766861	-0.1108810429509913	-0.109453567106311	-39.19774405921427	83.17383685221492	-24.085686063902	-6.559184008096671	-42.91960797277555	-679.6581312095323	87.11036556123032	-1.152733366985872	-0.6066884253339526	-0.4583269001607247	6.522112114433922	0.189633793201312	2.250767433873233	-4.369383946150164	7.675665650252165	7.675665650251331	-2.441043828105154	-0.09350732038100713	3.064170748738092	0.8928147587574923	1.745368901503053e-07	7.194321010825292e-08	-1.151047612165125e-06	2.194608022838891e-07	9.712514670489108e-08	-3.428404524013672e-07	-5.076335232062201e-07
0.04	-0.00752944419758831	0.09576132583727102	0.9423494419273463	0.1817930567215099	-0.2319671507501909	-0.2597771894652942	-0.04231158262869113	0.07965932877497618	0.07965932877497715	0.1724077954221253	0.1745056273257385	0.03508071059691694	-0.00266744796029322	-0.04955075600621969	-0.02474172397991335	-0.01870546496033729	0.27183451402236	0.008347031401725416	0.09086969443831315	-0.1805894079317971	0.3184552675079942	0.3184552675079763	-0.1025023649649849	-0.0009090211620720388	0.1275574408600933	0.03763234898667563	0.2071884007575628	-0.1902334244498122	-0.04150849518730342	-0.3996787065550108	0.3960315047421285	-0.11233379854391	-0.1042250491379165	-39.28926762419668	79.0205735431237	-25.48938865840109	-6.283349334075785	-40.15743894489673	-678.131181880595	82.91742779971582	-1.24536998011165	-0.6087321986321456	-0.4868504472850144	6.590658602026215	0.1104295929101079	1.969524663157091	-4.048446163865115	7.691530345879811	7.691530345879249	-2.24482584340371	0.1768448994141515	3.013345029099922	0.8017805104312906	1.874763229489173e-07	7.205599114158133e-08	-1.234235929761346e-06	2.083684793175287e-07	1.10617108281835e-07	-4.38703000066293e-07	-5.257290594388981e-07
